<svg width="24" height="24" viewBox="0 0 24 24" fill="none" xmlns="http://www.w3.org/2000/svg">
<g clip-path="url(#clip0_491_28)">
<path d="M20.1313 3.36827L9.52469 3.36827C9.24846 3.36828 9.02472 3.59201 9.02476 3.86821C9.02476 4.14445 9.24849 4.36818 9.52469 4.36815L18.9243 4.36814L3.5143 19.7781C3.31887 19.9735 3.31887 20.2898 3.5143 20.4852C3.70972 20.6807 4.026 20.6807 4.22142 20.4852L19.6314 5.07527L19.6314 14.4748C19.6314 14.751 19.8551 14.9748 20.1313 14.9747C20.2694 14.9747 20.3944 14.9188 20.4849 14.8283C20.5753 14.7379 20.6312 14.6129 20.6313 14.4748L20.6313 3.86818C20.6313 3.59201 20.4075 3.36827 20.1313 3.36827Z" fill="#005D7D"/>
</g>
<defs>
<clipPath id="clip0_491_28">
<rect width="24" height="24" fill="white"/>
</clipPath>
</defs>
</svg>
