<svg width="16" height="24" viewBox="0 0 16 24" fill="none" xmlns="http://www.w3.org/2000/svg">
<path d="M7.66002 23.3975L0.448479 16.186C0.260663 15.9981 0.260663 15.6939 0.448479 15.5061C0.636294 15.3183 0.940531 15.3183 1.1283 15.5061L7.51917 21.897L7.51917 0.94221C7.51917 0.676465 7.73421 0.461426 7.99995 0.461426C8.2657 0.461426 8.48073 0.676465 8.48073 0.94221L8.48073 21.897L14.8716 15.5061C15.0594 15.3183 15.3636 15.3183 15.5514 15.5061C15.6453 15.6 15.6922 15.7231 15.6922 15.8461C15.6922 15.9691 15.6453 16.0921 15.5514 16.186L8.33984 23.3975C8.15207 23.5853 7.84783 23.5853 7.66002 23.3975Z" fill="#F1F2F5"/>
</svg>
