<svg width="18" height="18" viewBox="0 0 18 18" fill="none" xmlns="http://www.w3.org/2000/svg">
<path d="M16.9018 8.33025H9.66966V1.09811C9.66966 0.728266 9.36986 0.428467 9.00002 0.428467C8.63017 0.428467 8.33037 0.728266 8.33037 1.09811V8.33025H1.09823C0.728388 8.33025 0.428589 8.63005 0.428589 8.9999C0.428589 9.36974 0.728388 9.66954 1.09823 9.66954H8.33037V16.9017C8.33037 17.2715 8.63017 17.5713 9.00002 17.5713C9.36986 17.5713 9.66966 17.2715 9.66966 16.9017V9.66954H16.9018C17.2716 9.66954 17.5714 9.36974 17.5714 8.9999C17.5714 8.63005 17.2716 8.33025 16.9018 8.33025Z" fill="#005D7D"/>
</svg>
