<svg width="70" height="70" viewBox="0 0 70 70" fill="none" xmlns="http://www.w3.org/2000/svg">
<circle cx="35" cy="35" r="34.5" transform="rotate(-90 35 35)" stroke="#919399"/>
<g clip-path="url(#clip0_319_2039)">
<path d="M44.9226 24.3934L35.0003 34.3157L25.078 24.3934C24.8891 24.2044 24.5827 24.2044 24.3937 24.3934C24.2048 24.5824 24.2048 24.8887 24.3937 25.0777L34.316 35L24.3937 44.9223C24.2048 45.1113 24.2048 45.4176 24.3937 45.6066C24.5827 45.7956 24.8891 45.7956 25.078 45.6066L35.0003 35.6843L44.9226 45.6066C45.1116 45.7956 45.418 45.7956 45.6069 45.6066C45.7959 45.4177 45.7959 45.1113 45.6069 44.9223L35.6846 35L45.6069 25.0777C45.7959 24.8887 45.7959 24.5823 45.6069 24.3934C45.418 24.2044 45.1116 24.2044 44.9226 24.3934Z" fill="#919399"/>
</g>
<defs>
<clipPath id="clip0_319_2039">
<rect width="30" height="30" fill="white" transform="translate(20 20)"/>
</clipPath>
</defs>
</svg>
