<svg width="22" height="22" viewBox="0 0 22 22" fill="none" xmlns="http://www.w3.org/2000/svg">
<path d="M20.9226 0.393398L11.0003 10.3157L1.07801 0.393399C0.889056 0.204447 0.582662 0.204447 0.393711 0.393398C0.204759 0.582351 0.204759 0.888744 0.393711 1.0777L10.316 11L0.393711 20.9223C0.204759 21.1113 0.204759 21.4176 0.393711 21.6066C0.582662 21.7956 0.889056 21.7956 1.07801 21.6066L11.0003 11.6843L20.9226 21.6066C21.1116 21.7956 21.418 21.7956 21.6069 21.6066C21.7959 21.4177 21.7959 21.1113 21.6069 20.9223L11.6846 11L21.6069 1.0777C21.7959 0.888744 21.7959 0.58235 21.6069 0.393398C21.418 0.204446 21.1116 0.204447 20.9226 0.393398Z" fill="#919399"/>
</svg>
