<svg width="80" height="80" viewBox="0 0 80 80" fill="none" xmlns="http://www.w3.org/2000/svg">
<circle cx="40" cy="40" r="39.5" stroke="#005D7D"/>
<path d="M50.4 50.3997V42.7817C50.4 39.0377 49.594 36.1777 45.226 36.1777C43.12 36.1777 41.716 37.3217 41.144 38.4137H41.092V36.5157H36.958V50.3997H41.274V43.5097C41.274 41.6897 41.612 39.9477 43.848 39.9477C46.058 39.9477 46.084 42.0017 46.084 43.6137V50.3737H50.4V50.3997Z" fill="#005D7D"/>
<path d="M29.9375 36.5156H34.2535V50.3996H29.9375V36.5156Z" fill="#005D7D"/>
<path d="M32.0956 29.6001C30.7176 29.6001 29.5996 30.7181 29.5996 32.0961C29.5996 33.4741 30.7176 34.6181 32.0956 34.6181C33.4736 34.6181 34.5916 33.4741 34.5916 32.0961C34.5916 30.7181 33.4736 29.6001 32.0956 29.6001Z" fill="#005D7D"/>
</svg>
