<svg width="210" height="31" viewBox="0 0 210 31" fill="none" xmlns="http://www.w3.org/2000/svg">
<path d="M146.964 26.4233C146.711 25.5929 146.516 24.7903 146.378 24.016C146.316 23.7203 146.194 23.3192 146.01 22.8123C145.949 22.5872 145.918 22.4322 145.918 22.3476C145.918 22.0943 146.033 21.9041 146.263 21.7775C146.324 21.7353 146.412 21.7037 146.527 21.6825C146.643 21.6613 146.738 21.6581 146.815 21.672C147.152 21.7847 147.459 22.6433 147.735 24.2484C147.78 24.6567 147.849 25.0227 147.941 25.3463C148.033 25.6704 148.087 25.8604 148.102 25.9165C148.149 26.001 148.202 26.089 148.263 26.1805C148.324 26.2722 148.393 26.3176 148.47 26.3176C148.516 26.3176 148.57 26.2897 148.631 26.2333C148.922 25.9661 149.237 25.628 149.574 25.2196C149.942 24.7549 150.195 24.4456 150.333 24.2905C150.501 24.0511 150.724 23.7697 151 23.4458C151.046 23.3898 151.153 23.2556 151.322 23.0444C151.49 22.8333 151.651 22.6538 151.804 22.5062C151.957 22.3584 152.088 22.2704 152.195 22.2422C152.241 22.2282 152.31 22.221 152.402 22.221C152.663 22.221 152.793 22.3197 152.793 22.5167C152.793 22.6997 152.655 22.9744 152.379 23.3401C152.287 23.4531 152.191 23.6041 152.092 23.7941C151.992 23.9843 151.927 24.0935 151.896 24.1214C151.727 24.4313 151.417 24.8679 150.965 25.4308C150.513 25.994 150.21 26.346 150.057 26.4866C150.026 26.5151 149.899 26.6133 149.677 26.7823C149.455 26.9513 149.252 27.1555 149.068 27.3946C148.577 27.8169 148.225 28.0281 148.01 28.0281C147.872 28.0281 147.735 27.9647 147.597 27.8381C147.428 27.7257 147.217 27.254 146.964 26.4233Z" fill="#005D7D"/>
<path d="M155.966 28.8517C155.582 28.8517 155.218 28.7672 154.874 28.5982C154.529 28.4294 154.241 28.1971 154.011 27.9014C153.812 27.6765 153.666 27.423 153.574 27.1413C153.482 26.8598 153.437 26.515 153.437 26.1064C153.437 25.966 153.451 25.684 153.482 25.2617C153.528 24.7412 153.716 24.1989 154.046 23.6358C154.375 23.0728 154.785 22.5695 155.276 22.126C155.766 21.6824 156.249 21.3763 156.724 21.2073C156.97 21.0667 157.192 20.9961 157.391 20.9961C157.498 20.9961 157.606 21.0033 157.713 21.0173C157.82 21.0315 157.935 21.0457 158.058 21.0594C158.395 21.1018 158.652 21.1619 158.828 21.2389C159.004 21.3165 159.154 21.4326 159.277 21.5875C159.66 21.9395 159.852 22.3476 159.852 22.8123C159.79 23.1501 159.553 23.5375 159.139 23.9736C158.725 24.4101 158.227 24.7621 157.644 25.0296C157.368 25.1139 157.054 25.1563 156.701 25.1563C156.226 25.1563 155.843 25.0648 155.552 24.8818C155.414 24.8394 155.306 24.8185 155.23 24.8185C155.092 24.8185 154.988 24.9027 154.92 25.0718C154.851 25.2408 154.785 25.5504 154.724 26.0009C154.709 26.0997 154.701 26.2405 154.701 26.4232C154.701 27.1413 154.962 27.5354 155.483 27.6057C155.835 27.6765 156.088 27.7114 156.242 27.7114C156.426 27.7114 156.632 27.6553 156.862 27.5424L157.299 27.3103C157.391 27.2679 157.475 27.2118 157.552 27.1413C157.629 27.071 157.698 27.0076 157.759 26.9513C157.79 26.9231 157.836 26.8772 157.897 26.8139C157.958 26.7506 158.016 26.7082 158.07 26.6873C158.123 26.6661 158.173 26.6556 158.219 26.6556C158.28 26.6556 158.349 26.6873 158.426 26.7506C158.502 26.8139 158.564 26.8598 158.61 26.8877C158.748 26.8877 158.779 26.976 158.702 27.1517C158.625 27.328 158.46 27.5319 158.207 27.7643C157.955 27.9964 157.667 28.2043 157.345 28.387C156.962 28.6969 156.502 28.8517 155.966 28.8517ZM158.116 23.3825C158.384 23.1289 158.518 22.9177 158.518 22.749C158.518 22.5799 158.449 22.4393 158.311 22.3267C158.173 22.214 157.981 22.1576 157.736 22.1576C157.552 22.1576 157.414 22.1718 157.322 22.1997C157.107 22.2564 156.854 22.4077 156.563 22.6537C156.272 22.9003 156.019 23.1501 155.805 23.4034C155.59 23.6569 155.506 23.8048 155.552 23.8469C155.628 23.9736 155.927 24.0371 156.449 24.0371C156.801 24.0371 157.092 23.9948 157.322 23.9102C157.583 23.812 157.847 23.6358 158.116 23.3825Z" fill="#005D7D"/>
<path d="M167.199 28.3768C166.961 28.0462 166.843 27.7189 166.843 27.3947C166.843 27.1699 166.9 26.765 167.015 26.1806C167.13 25.5965 167.271 25.0229 167.44 24.4597C167.532 24.2061 167.578 24.0234 167.578 23.9104C167.578 23.8401 167.547 23.805 167.486 23.805C167.425 23.805 167.241 23.8895 166.935 24.0583C166.444 24.2979 166.107 24.516 165.923 24.7129C165.846 24.7693 165.723 24.868 165.555 25.0086C165.386 25.1495 165.233 25.2619 165.095 25.3464C164.804 25.5576 164.417 25.8637 163.934 26.2651C163.451 26.6663 163.056 27.0078 162.75 27.2893C162.658 27.4444 162.527 27.5216 162.359 27.5216C162.313 27.5216 162.244 27.5077 162.152 27.4792C161.968 27.4371 161.807 27.3421 161.669 27.1943C161.531 27.0465 161.462 26.8879 161.462 26.7191C161.462 26.508 161.596 26.0644 161.864 25.3888C162.132 24.7129 162.466 23.9738 162.865 23.1715C162.926 23.073 162.98 22.9287 163.026 22.7384C163.072 22.5485 163.094 22.369 163.094 22.1999C163.094 22.1017 163.118 21.9888 163.163 21.8621C163.21 21.7355 163.263 21.644 163.324 21.5876C163.371 21.5174 163.44 21.4819 163.532 21.4819C163.73 21.4819 163.899 21.5876 164.037 21.7988C164.282 22.01 164.405 22.2775 164.405 22.6013C164.405 22.8688 164.321 23.2136 164.152 23.6359C164.045 23.8334 163.965 23.9917 163.911 24.1111C163.857 24.2308 163.823 24.3118 163.807 24.3539C163.853 24.3539 164.052 24.2557 164.405 24.0583L164.98 23.7417L165.67 23.2557C166.022 23.0025 166.222 22.8758 166.268 22.8758C166.329 22.8758 166.406 22.8546 166.497 22.8125C166.59 22.7701 166.666 22.721 166.727 22.6647C166.774 22.6223 166.816 22.5944 166.854 22.5801C166.892 22.5662 166.919 22.5589 166.935 22.5589C166.949 22.5589 166.988 22.552 167.049 22.538C167.11 22.5241 167.164 22.4956 167.21 22.4535C167.271 22.3974 167.379 22.369 167.532 22.369C167.747 22.369 167.961 22.4323 168.176 22.5589C168.391 22.6859 168.498 22.8267 168.498 22.9813C168.498 23.0237 168.513 23.0626 168.544 23.0974C168.575 23.1329 168.597 23.1575 168.613 23.1715C168.674 23.1715 168.728 23.2453 168.774 23.3931C168.82 23.541 168.843 23.7205 168.843 23.9316C168.843 24.2415 168.805 24.5018 168.728 24.7129C168.728 24.868 168.697 25.065 168.636 25.3043C168.575 25.5439 168.536 25.6985 168.521 25.7688L168.383 26.3177C168.184 26.8812 168.084 27.3456 168.084 27.7116C168.084 27.9933 168.145 28.2115 168.268 28.3663C168.299 28.4226 168.314 28.479 168.314 28.5351C168.314 28.6196 168.28 28.6971 168.211 28.7674C168.142 28.838 168.038 28.8731 167.9 28.8731C167.67 28.8731 167.436 28.7076 167.199 28.3768Z" fill="#005D7D"/>
<path d="M172.28 29.7913C172.088 29.6013 171.993 29.3161 171.993 28.9362C171.993 28.8377 172.008 28.6617 172.039 28.4082C172.1 28.2112 172.146 28.0143 172.177 27.8168C172.253 27.5074 172.33 27.3242 172.407 27.2678C172.422 27.2539 172.437 27.2257 172.453 27.1833C172.468 27.1412 172.453 27.1063 172.407 27.0779C172.407 26.8951 172.476 26.6416 172.614 26.3175C172.644 26.2193 172.683 26.1205 172.729 26.0221C172.775 25.9236 172.805 25.8603 172.82 25.8318C172.79 25.8039 172.775 25.7615 172.775 25.7052C172.775 25.6349 172.817 25.5646 172.901 25.494C172.985 25.4237 173.047 25.3604 173.085 25.3041C173.123 25.248 173.12 25.1914 173.074 25.135C173.043 25.0647 173.189 24.7481 173.51 24.1847C173.71 23.8189 173.817 23.6145 173.832 23.5724C173.817 23.5302 173.928 23.2697 174.166 22.791C174.403 22.3126 174.591 21.9536 174.729 21.714C174.867 21.6437 174.813 21.5946 174.568 21.5662C174.323 21.5383 174.024 21.5313 173.671 21.5453C173.166 21.5313 172.775 21.5066 172.499 21.4712C172.223 21.4363 172 21.3762 171.832 21.2917C171.694 21.1369 171.625 21.0172 171.625 20.9327C171.625 20.7921 171.809 20.7146 172.177 20.7004C172.575 20.6867 173.189 20.637 174.016 20.5525L175.189 20.4683L175.258 20.1093C175.472 19.7712 175.626 19.5074 175.718 19.3172C175.81 19.1272 175.879 18.9129 175.925 18.6733C175.971 18.6172 176.051 18.4763 176.166 18.2509C176.281 18.0258 176.354 17.8074 176.384 17.5963C176.553 17.329 176.71 17.072 176.856 16.8254C177.002 16.5793 177.089 16.4347 177.12 16.3926C177.289 16.266 177.404 16.2026 177.465 16.2026C177.557 16.2026 177.71 16.2732 177.925 16.4138C178.308 16.6531 178.5 16.857 178.5 17.0261C178.5 17.1106 178.454 17.1951 178.362 17.2794C178.301 17.3923 178.209 17.6174 178.086 17.9553C177.979 18.0819 177.864 18.2544 177.741 18.4726C177.618 18.691 177.534 18.8986 177.488 19.0956C177.366 19.3352 177.247 19.5496 177.132 19.7395C177.017 19.9298 176.936 20.0247 176.89 20.0247C176.905 20.1093 176.936 20.1656 176.983 20.1938C177.028 20.222 177.105 20.2359 177.212 20.2359C177.289 20.2359 177.385 20.2289 177.5 20.2147C177.615 20.201 177.756 20.1938 177.925 20.1938C178.078 20.1798 178.212 20.1586 178.328 20.1302C178.442 20.1023 178.553 20.0881 178.661 20.0881C178.737 20.0881 178.83 20.1093 178.937 20.1514C179.09 20.3346 179.167 20.5246 179.167 20.7216C179.167 20.8766 179.098 20.9891 178.96 21.0594C178.883 21.0736 178.714 21.116 178.454 21.1863C178.193 21.2568 177.91 21.299 177.603 21.3129L176.384 21.4184L175.994 22.1364C175.886 22.3054 175.794 22.4675 175.718 22.622C175.641 22.7771 175.587 22.8686 175.557 22.8968C175.557 22.9673 175.495 23.1079 175.373 23.3191C175.25 23.5302 175.158 23.699 175.097 23.8257C175.02 24.0231 174.928 24.2163 174.821 24.4066C174.714 24.5965 174.645 24.7199 174.614 24.776C174.568 24.776 174.541 24.7865 174.534 24.8077C174.526 24.8289 174.522 24.8605 174.522 24.9027L174.568 25.0717C174.568 25.1423 174.53 25.2126 174.453 25.2829C174.392 25.3113 174.334 25.3604 174.281 25.4307C174.227 25.5013 174.192 25.5504 174.177 25.5785C174.208 25.607 174.223 25.6419 174.223 25.684C174.223 25.7827 174.169 25.9094 174.062 26.0642C174.062 26.3038 173.955 26.6628 173.74 27.1412C173.755 27.3945 173.771 27.5565 173.786 27.6268C173.802 27.6974 173.84 27.7256 173.901 27.7114H173.993L174.292 27.6902C174.507 27.6056 174.392 28.0988 173.947 29.1683L173.58 29.7385C173.564 29.7666 173.51 29.8474 173.419 29.9813C173.327 30.1152 173.25 30.182 173.189 30.182C172.775 30.1114 172.472 29.9813 172.28 29.7913Z" fill="#005D7D"/>
<path d="M183.707 29.0204C183.531 28.9222 183.359 28.7743 183.19 28.5771C183.067 28.3942 182.994 28.2042 182.971 28.007C182.948 27.81 182.937 27.4017 182.937 26.7821C182.937 26.6415 182.906 26.571 182.845 26.571C182.799 26.571 182.692 26.638 182.523 26.7717C182.354 26.9056 182.147 27.0851 181.902 27.3102C181.503 27.6622 181.135 27.9367 180.799 28.1336C180.461 28.3308 180.185 28.4223 179.971 28.4081C179.802 28.4081 179.622 28.3027 179.43 28.0915C179.239 27.8803 179.089 27.634 178.982 27.3523C178.936 27.1833 178.913 26.9863 178.913 26.7609C178.913 26.1698 179.047 25.4518 179.315 24.6072C179.584 23.7623 179.898 23.0338 180.258 22.4215C180.618 21.809 180.937 21.5028 181.212 21.5028C181.442 21.5028 181.657 21.7352 181.856 22.1996C181.902 22.2841 181.925 22.3547 181.925 22.4108C181.925 22.5095 181.864 22.6083 181.741 22.7065C181.511 22.9742 181.243 23.4529 180.937 24.1425C180.63 24.8323 180.388 25.4728 180.212 26.0641C180.036 26.6555 180.001 26.9512 180.109 26.9512C180.323 26.9512 180.576 26.8739 180.868 26.7188C181.159 26.564 181.45 26.3598 181.741 26.1063C182.032 25.839 182.293 25.5541 182.523 25.2511C182.753 24.9485 183.037 24.5369 183.374 24.0158C184.018 23.0727 184.37 22.5237 184.432 22.3687C184.662 21.9748 184.826 21.7177 184.926 21.5978C185.025 21.4784 185.152 21.3974 185.305 21.355H185.627C185.719 21.3692 185.826 21.4325 185.949 21.5452C186.056 21.5873 186.121 21.6332 186.144 21.6823C186.168 21.732 186.179 21.7985 186.179 21.883L185.811 22.6643L185.604 23.1079C185.589 23.1642 185.504 23.3263 185.351 23.5935C184.998 24.3115 184.73 24.8889 184.546 25.3249C184.363 25.7615 184.224 26.212 184.133 26.6764C184.117 26.7473 184.11 26.8666 184.11 27.0354C184.11 27.4577 184.155 27.7534 184.248 27.9225C184.385 28.1757 184.524 28.359 184.662 28.4714C184.738 28.5278 184.776 28.5844 184.776 28.6405C184.776 28.7392 184.688 28.8377 184.512 28.9361C184.335 29.0346 184.209 29.084 184.133 29.084C184.025 29.1401 183.883 29.1191 183.707 29.0204Z" fill="#005D7D"/>
<path d="M187.421 28.155C187.375 28.0847 187.352 27.9789 187.352 27.8381C187.352 27.7114 187.359 27.6057 187.375 27.5215C187.421 27.0428 187.535 26.4866 187.719 25.8531L187.834 25.4308C187.88 25.079 188.148 24.3398 188.639 23.2134C189.13 22.0873 189.528 21.3202 189.835 20.9116C189.957 20.8413 190.088 20.8062 190.226 20.8062C190.425 20.8062 190.594 20.8695 190.732 20.9961C190.824 21.0527 190.869 21.1582 190.869 21.313C190.869 21.4539 190.812 21.6613 190.697 21.936C190.582 22.2105 190.387 22.6154 190.111 23.1501C190.049 23.2631 189.946 23.4743 189.8 23.7836C189.654 24.0935 189.582 24.2765 189.582 24.3326C189.582 24.361 189.589 24.375 189.605 24.375C189.635 24.375 189.666 24.3642 189.697 24.3433C189.727 24.3221 189.758 24.3047 189.789 24.2905C189.957 24.0232 190.367 23.657 191.019 23.1923C191.67 22.7278 192.119 22.4394 192.364 22.3267C192.471 22.2703 192.609 22.214 192.778 22.1576C192.947 22.1016 193.061 22.0592 193.123 22.031C193.368 21.9183 193.659 21.862 193.997 21.862C194.211 21.862 194.399 21.8936 194.56 21.9569C194.721 22.0203 194.832 22.1155 194.894 22.2422C194.908 22.3406 194.951 22.4182 195.02 22.4743C195.089 22.5309 195.138 22.566 195.169 22.58C195.215 22.58 195.246 22.5977 195.261 22.6328C195.276 22.668 195.284 22.6929 195.284 22.7066C195.284 22.8053 195.223 22.8649 195.1 22.8861C194.977 22.9073 194.755 22.925 194.433 22.939C194.265 22.9532 194.089 22.9883 193.905 23.0444C193.721 23.101 193.537 23.1713 193.353 23.2556C192.494 23.7063 191.854 24.0581 191.433 24.3117C191.011 24.5649 190.586 24.91 190.157 25.3463C189.988 25.5153 189.766 25.8182 189.49 26.2542C189.383 26.353 189.272 26.61 189.156 27.0251C189.042 27.4404 188.984 27.6975 188.984 27.796C188.969 27.8381 188.938 27.9194 188.892 28.0388C188.846 28.1584 188.777 28.2746 188.685 28.387C188.501 28.6124 188.348 28.7251 188.225 28.7251C188.087 28.7251 187.903 28.6124 187.674 28.387C187.551 28.3028 187.466 28.2255 187.421 28.155Z" fill="#005D7D"/>
<path d="M196.089 27.912C195.889 27.6236 195.79 27.2187 195.79 26.6976C195.79 26.4443 195.813 26.1487 195.859 25.8109L195.905 25.0505C195.905 24.9238 195.889 24.8256 195.859 24.7548C195.828 24.6845 195.759 24.6072 195.652 24.5227C195.621 24.4945 195.545 24.4242 195.422 24.3115C195.299 24.1988 195.246 24.1076 195.261 24.0371L195.238 23.9313C195.238 23.8331 195.257 23.7414 195.296 23.6569C195.334 23.5723 195.376 23.5302 195.422 23.5302C195.468 23.5302 195.529 23.5195 195.606 23.4985C195.683 23.4774 195.752 23.4741 195.813 23.4878C196.028 23.4878 196.135 23.5302 196.135 23.6145C196.196 23.7274 196.3 23.7379 196.445 23.6464C196.591 23.5549 196.733 23.3754 196.871 23.1079C197.085 22.7983 197.403 22.4709 197.825 22.1259C198.246 21.7811 198.595 21.5383 198.871 21.3974C198.978 21.3413 199.155 21.2885 199.4 21.2388C199.645 21.1897 199.86 21.165 200.044 21.165C200.32 21.165 200.561 21.2214 200.768 21.3338C200.975 21.4468 201.186 21.6086 201.4 21.8197C201.691 22.0169 201.837 22.3266 201.837 22.7489C201.837 23.0443 201.761 23.3472 201.608 23.6569C201.546 23.868 201.305 24.1355 200.883 24.4594C200.461 24.7832 200.074 25.0083 199.722 25.135C199.292 25.2337 198.802 25.2828 198.25 25.2828C197.883 25.2828 197.645 25.2547 197.538 25.1983C197.354 25.1001 197.223 25.48 197.147 26.3386C197.131 26.4374 197.124 26.571 197.124 26.74C197.124 26.9794 197.162 27.1696 197.239 27.3102C197.254 27.3241 197.308 27.377 197.4 27.4685C197.492 27.5603 197.606 27.6373 197.745 27.7009C197.883 27.7642 198.028 27.7958 198.181 27.7958C198.319 27.7958 198.427 27.7819 198.503 27.7534C198.672 27.7113 198.833 27.6306 198.986 27.5106C199.139 27.3912 199.354 27.2045 199.63 26.9512C199.875 26.7261 200.052 26.571 200.159 26.4865C200.235 26.3598 200.389 26.2965 200.619 26.2965C200.68 26.2965 200.787 26.3107 200.941 26.3386C201.079 26.4374 201.148 26.5428 201.148 26.6555C201.148 26.7682 201.071 26.9794 200.918 27.289C200.841 27.4299 200.653 27.6236 200.354 27.8696C200.055 28.1162 199.791 28.3099 199.561 28.4503C199.086 28.6899 198.61 28.8093 198.135 28.8093C197.844 28.8093 197.507 28.7459 197.124 28.6193C196.633 28.4366 196.288 28.2007 196.089 27.912ZM199.147 24.227C199.438 24.1846 199.68 24.0896 199.872 23.9418C200.063 23.794 200.289 23.5375 200.55 23.1712C200.596 23.0585 200.619 22.9461 200.619 22.8331C200.619 22.622 200.573 22.4741 200.481 22.3899C200.373 22.2914 200.251 22.242 200.113 22.242C199.898 22.242 199.676 22.3266 199.446 22.4953C199.292 22.5377 199.067 22.6928 198.768 22.96C198.469 23.2276 198.212 23.4916 197.997 23.7518C197.783 24.0126 197.714 24.1637 197.791 24.2058C197.76 24.2482 197.836 24.2799 198.02 24.3008C198.205 24.322 198.357 24.3325 198.48 24.3325C198.633 24.3046 198.856 24.2691 199.147 24.227Z" fill="#005D7D"/>
<path d="M203.47 28.6618C203.086 28.4646 202.833 28.1971 202.711 27.8593C202.603 27.6057 202.55 27.4651 202.55 27.4369C202.55 27.3524 202.603 27.2891 202.711 27.2467C202.818 27.2467 202.944 27.2891 203.09 27.3736C203.236 27.4579 203.355 27.5145 203.446 27.5424C203.676 27.7399 203.99 27.8381 204.389 27.8381C204.696 27.8381 204.976 27.782 205.229 27.669C205.482 27.5566 205.623 27.423 205.654 27.2679C205.654 27.1976 205.577 26.9513 205.424 26.5287C205.041 26.0221 204.746 25.5046 204.539 24.9768C204.332 24.4487 204.228 24.002 204.228 23.6358C204.228 23.3685 204.312 23.094 204.481 22.8123C204.65 22.5308 204.88 22.2915 205.171 22.0943C205.554 21.7283 206.018 21.3975 206.562 21.1018C207.106 20.8061 207.601 20.6022 208.045 20.4893C208.229 20.4893 208.455 20.5105 208.724 20.5526C208.992 20.595 209.179 20.6443 209.287 20.7004C209.455 20.757 209.616 20.9116 209.77 21.1651C209.923 21.4184 210 21.658 210 21.8831C210 22.1085 209.869 22.4182 209.609 22.8123C209.578 22.9108 209.517 23.0444 209.425 23.2134C209.333 23.3825 209.287 23.4879 209.287 23.5303C209.226 23.6712 209.126 23.7415 208.988 23.7415C208.85 23.7415 208.716 23.6816 208.586 23.562C208.455 23.4426 208.352 23.298 208.275 23.1289C208.229 22.9601 208.206 22.8123 208.206 22.6857C208.206 22.5166 208.267 22.3476 208.39 22.1788C208.559 22.024 208.643 21.9183 208.643 21.8619C208.643 21.8059 208.559 21.7774 208.39 21.7774C208.206 21.7774 207.853 21.9116 207.332 22.1788C206.811 22.4463 206.397 22.7278 206.091 23.0235C205.815 23.2631 205.646 23.4426 205.585 23.562C205.524 23.6816 205.493 23.8611 205.493 24.1005C205.493 24.3116 205.543 24.5617 205.643 24.8501C205.742 25.1388 205.845 25.3323 205.953 25.4308C205.983 25.4871 206.048 25.607 206.148 25.7898C206.248 25.9728 206.367 26.1488 206.505 26.3175C206.811 26.9513 206.965 27.4442 206.965 27.7959C206.965 28.2043 206.792 28.5 206.447 28.6827C206.102 28.866 205.562 28.9572 204.826 28.9572C204.305 28.9572 203.853 28.859 203.47 28.6618Z" fill="#005D7D"/>
<path d="M7.20087 0.54834H10.363L17.5641 17.6306H12.4623L11.612 15.1659H5.9255L5.0752 17.6306H0L7.20087 0.54834ZM10.4162 11.6273L8.76865 6.89302L7.14784 11.6273H10.4162Z" fill="#005D7D"/>
<path d="M18.5205 10.5782V0.54834H23.3035V10.5782C23.3035 11.6029 23.8615 13.482 26.4656 13.482C29.0961 13.482 29.6542 11.6029 29.6542 10.5782V0.54834H34.4372V10.5782C34.4372 14.8242 31.3548 17.8746 26.4656 17.8746C21.5763 17.8746 18.5205 14.8242 18.5205 10.5782Z" fill="#005D7D"/>
<path d="M36.7217 15.5566L38.9537 11.5542C40.3353 12.7013 43.2849 13.8238 44.4274 13.8238C45.5169 13.8238 46.128 13.5554 46.128 13.0186C46.128 12.1642 45.3309 11.8229 44.082 11.359C40.8934 10.2366 36.9341 8.84549 36.9341 5.35575C36.9341 2.32982 39.0866 0.304199 43.9757 0.304199C46.5532 0.304199 48.8119 0.792435 50.6453 2.3054L48.0678 5.79513C47.1643 4.79453 45.0653 4.13561 43.8961 4.13561C42.408 4.13561 41.7437 4.69683 41.7437 5.16064C41.7437 5.74628 42.3814 6.06353 43.8163 6.57589C46.2876 7.47908 51.1502 8.4064 51.1502 13.0186C51.1502 16.1666 48.2006 17.8747 44.1352 17.8747C41.7171 17.8747 38.8739 17.0451 36.7217 15.5566Z" fill="#005D7D"/>
<path d="M57.0749 4.76998H52.292V0.54834H66.6409V4.76998H61.8579V17.6306H57.0749V4.76998Z" fill="#005D7D"/>
<path d="M68.8457 0.54834H73.6287V17.6306H68.8457V0.54834Z" fill="#005D7D"/>
<path d="M82.1853 8.40628V17.6306H77.4023V0.54834H80.4581L89.466 9.72383V0.54834H94.2489V17.655H91.1932L82.1853 8.40628Z" fill="#005D7D"/>
<path d="M97.4893 9.08896C97.4893 3.91557 101.767 0.328125 107.055 0.328125C109.819 0.328125 112.29 1.37758 114.017 3.11008L113.14 3.91557C111.785 2.35375 109.633 1.37758 107.055 1.37758C102.378 1.37758 98.738 4.62334 98.738 9.08895C98.738 13.5549 102.378 16.8251 107.055 16.8251C109.42 16.8251 111.599 15.9219 113.007 14.4578V9.82116H107.055V8.79613H114.15V15.019L113.672 15.4095C112.396 16.5564 110.749 17.3618 108.942 17.7035C108.384 17.8009 107.772 17.8742 107.135 17.8742H107.055C101.767 17.8742 97.4893 14.2626 97.4893 9.08896Z" fill="#171F23"/>
<path d="M118.002 0.54834H124.432C129.401 0.54834 131.66 2.18314 131.66 5.84386C131.66 8.77208 129.88 9.96809 126.904 10.3339L132.244 17.6306H130.836L125.628 10.4316C125.23 10.456 124.831 10.456 124.432 10.456H119.198V17.6306H118.002V0.54834ZM124.432 9.43101C127.408 9.43101 130.384 9.16261 130.384 5.86829C130.384 1.67077 126.797 1.62192 124.432 1.62192H119.198V9.43101H124.432V9.43101Z" fill="#171F23"/>
<path d="M134.264 8.96739C134.264 3.98911 138.462 0.182129 143.83 0.182129C149.17 0.182129 153.395 3.98911 153.395 8.96739C153.395 13.9457 149.17 17.7526 143.83 17.7526C138.462 17.7526 134.264 13.9457 134.264 8.96739ZM143.83 16.7032C148.373 16.7032 152.173 13.4818 152.173 8.96739C152.173 4.40377 148.373 1.18273 143.83 1.23158C139.206 1.18273 135.486 4.40377 135.539 8.96739C135.486 13.4818 139.206 16.7032 143.83 16.7032Z" fill="#171F23"/>
<path d="M154.538 0.54834H155.813L160.49 15.3855L165.194 0.54834H165.911L170.641 15.3855L175.317 0.54834H176.593L171.039 17.6306H170.322L165.566 2.76908L160.809 17.6306H160.092L154.538 0.54834Z" fill="#171F23"/>
<path d="M184.005 1.64635H178.026V0.54834H191.179V1.64635H185.201V17.6306H184.005V1.64635Z" fill="#171F23"/>
<path d="M193.677 0.54834H194.873V8.77208H206.724V0.54834H207.919V17.6306H206.724V9.79711H194.873V17.6306H193.677V0.54834Z" fill="#171F23"/>
</svg>
