<svg width="208" height="20" viewBox="0 0 208 20" fill="none" xmlns="http://www.w3.org/2000/svg">
<path d="M7.20087 0.398682H10.363L17.5641 18.9989H12.4623L11.612 16.3152H5.9255L5.0752 18.9989H0L7.20087 0.398682ZM10.4162 12.4621L8.76865 7.30715L7.14784 12.4621H10.4162Z" fill="#F1F2F5"/>
<path d="M18.5205 11.3198V0.398682H23.3035V11.3198C23.3035 12.4355 23.8615 14.4816 26.4656 14.4816C29.0961 14.4816 29.6542 12.4355 29.6542 11.3198V0.398682H34.4372V11.3198C34.4372 15.9431 31.3548 19.2645 26.4656 19.2645C21.5763 19.2645 18.5205 15.9431 18.5205 11.3198Z" fill="#F1F2F5"/>
<path d="M36.7214 16.7403L38.9535 12.3822C40.3351 13.6313 43.2846 14.8535 44.4272 14.8535C45.5167 14.8535 46.1278 14.5612 46.1278 13.9767C46.1278 13.0465 45.3307 12.6748 44.0817 12.1698C40.8931 10.9476 36.9339 9.43283 36.9339 5.633C36.9339 2.33819 39.0863 0.132568 43.9755 0.132568C46.553 0.132568 48.8117 0.664188 50.6451 2.31159L48.0676 6.11143C47.1641 5.02191 45.065 4.30444 43.8959 4.30444C42.4077 4.30444 41.7434 4.91552 41.7434 5.42055C41.7434 6.05823 42.3811 6.40367 43.8161 6.96156C46.2873 7.94501 51.1499 8.95473 51.1499 13.9767C51.1499 17.4045 48.2004 19.2644 44.1349 19.2644C41.7168 19.2644 38.8737 18.3611 36.7214 16.7403Z" fill="#F1F2F5"/>
<path d="M57.0752 4.99546H52.2922V0.398682H66.6411V4.99546H61.8581V18.9989H57.0752V4.99546Z" fill="#F1F2F5"/>
<path d="M68.8459 0.398682H73.6289V18.9989H68.8459V0.398682Z" fill="#F1F2F5"/>
<path d="M82.1853 8.95487V18.9989H77.4023V0.398682H80.4581L89.466 10.3895V0.398682H94.2489V19.0255H91.1932L82.1853 8.95487Z" fill="#F1F2F5"/>
<path d="M97.4893 9.6985C97.4893 4.0654 101.767 0.15918 107.055 0.15918C109.819 0.15918 112.29 1.30189 114.017 3.18834L113.14 4.0654C111.785 2.3648 109.633 1.30189 107.055 1.30189C102.378 1.30189 98.738 4.83607 98.738 9.6985C98.738 14.5612 102.378 18.122 107.055 18.122C109.42 18.122 111.599 17.1386 113.007 15.5444V10.4958H107.055V9.37965H114.15V16.1555L113.672 16.5807C112.396 17.8295 110.749 18.7065 108.942 19.0786C108.384 19.1846 107.772 19.2644 107.135 19.2644H107.055C101.767 19.2644 97.4893 15.3319 97.4893 9.6985Z" fill="#F1F2F5"/>
<path d="M118.002 0.398682H124.432C129.401 0.398682 131.66 2.17875 131.66 6.16476C131.66 9.35318 129.88 10.6555 126.904 11.0538L132.244 18.9989H130.836L125.628 11.1602C125.23 11.1868 124.831 11.1868 124.432 11.1868H119.198V18.9989H118.002V0.398682ZM124.432 10.0707C127.408 10.0707 130.384 9.77842 130.384 6.19136C130.384 1.62086 126.797 1.56766 124.432 1.56766H119.198V10.0707H124.432V10.0707Z" fill="#F1F2F5"/>
<path d="M134.264 9.56591C134.264 4.14527 138.462 0 143.83 0C149.171 0 153.396 4.14527 153.396 9.56591C153.396 14.9866 149.171 19.1318 143.83 19.1318C138.462 19.1318 134.264 14.9866 134.264 9.56591ZM143.83 17.9891C148.373 17.9891 152.173 14.4815 152.173 9.56591C152.173 4.59678 148.373 1.08951 143.83 1.14271C139.206 1.08951 135.486 4.59678 135.539 9.56591C135.486 14.4815 139.206 17.9891 143.83 17.9891Z" fill="#F1F2F5"/>
<path d="M154.538 0.398682H155.813L160.49 16.5542L165.194 0.398682H165.911L170.641 16.5542L175.317 0.398682H176.593L171.039 18.9989H170.322L165.566 2.81676L160.809 18.9989H160.092L154.538 0.398682Z" fill="#F1F2F5"/>
<path d="M184.005 1.59426H178.026V0.398682H191.179V1.59426H185.201V18.9989H184.005V1.59426Z" fill="#F1F2F5"/>
<path d="M193.677 0.398682H194.873V9.35318H206.724V0.398682H207.919V18.9989H206.724V10.4693H194.873V18.9989H193.677V0.398682Z" fill="#F1F2F5"/>
</svg>
