<svg width="210" height="33" viewBox="0 0 210 33" fill="none" xmlns="http://www.w3.org/2000/svg">
<path d="M146.964 28.5731C146.711 27.6688 146.516 26.795 146.378 25.9518C146.316 25.6299 146.194 25.1931 146.01 24.6412C145.949 24.3961 145.918 24.2273 145.918 24.1352C145.918 23.8594 146.033 23.6523 146.263 23.5144C146.324 23.4685 146.412 23.4341 146.527 23.411C146.642 23.3879 146.738 23.3844 146.815 23.3996C147.152 23.5223 147.458 24.4572 147.735 26.2048C147.78 26.6495 147.849 27.048 147.941 27.4003C148.033 27.7533 148.087 27.9601 148.102 28.0212C148.149 28.1132 148.202 28.209 148.263 28.3087C148.324 28.4086 148.393 28.4579 148.47 28.4579C148.516 28.4579 148.57 28.4276 148.631 28.3662C148.922 28.0752 149.237 27.7071 149.574 27.2624C149.942 26.7564 150.195 26.4196 150.333 26.2507C150.501 25.9901 150.724 25.6836 151 25.331C151.046 25.27 151.153 25.1239 151.322 24.8939C151.49 24.664 151.651 24.4686 151.804 24.3079C151.957 24.1469 152.088 24.0511 152.195 24.0204C152.241 24.0052 152.31 23.9973 152.402 23.9973C152.663 23.9973 152.793 24.1048 152.793 24.3193C152.793 24.5185 152.655 24.8177 152.379 25.2159C152.287 25.3389 152.191 25.5034 152.092 25.7102C151.992 25.9174 151.927 26.0363 151.896 26.0667C151.727 26.4041 151.417 26.8794 150.965 27.4924C150.513 28.1056 150.21 28.4889 150.057 28.642C150.026 28.673 149.899 28.7799 149.677 28.964C149.455 29.148 149.252 29.3703 149.068 29.6306C148.577 30.0905 148.225 30.3204 148.01 30.3204C147.872 30.3204 147.735 30.2515 147.597 30.1136C147.428 29.9912 147.217 29.4776 146.964 28.5731Z" fill="#F1F2F5"/>
<path d="M155.966 31.2173C155.582 31.2173 155.218 31.1252 154.874 30.9412C154.529 30.7574 154.241 30.5044 154.011 30.1825C153.812 29.9376 153.666 29.6616 153.574 29.3548C153.482 29.0483 153.437 28.6729 153.437 28.2279C153.437 28.0752 153.451 27.7681 153.482 27.3082C153.528 26.7415 153.716 26.151 154.046 25.5378C154.375 24.9249 154.785 24.3768 155.276 23.8938C155.766 23.4109 156.249 23.0776 156.724 22.8935C156.97 22.7404 157.192 22.6636 157.391 22.6636C157.498 22.6636 157.606 22.6715 157.713 22.6867C157.82 22.7021 157.935 22.7176 158.058 22.7325C158.395 22.7787 158.652 22.8441 158.828 22.928C159.004 23.0124 159.154 23.1389 159.277 23.3075C159.66 23.6908 159.852 24.1352 159.852 24.6412C159.79 25.009 159.553 25.4309 159.139 25.9056C158.725 26.3809 158.227 26.7643 157.644 27.0555C157.368 27.1473 157.054 27.1934 156.701 27.1934C156.226 27.1934 155.843 27.0938 155.552 26.8946C155.414 26.8484 155.306 26.8256 155.23 26.8256C155.092 26.8256 154.988 26.9173 154.919 27.1014C154.851 27.2855 154.785 27.6226 154.724 28.1131C154.709 28.2206 154.701 28.374 154.701 28.573C154.701 29.3548 154.962 29.784 155.483 29.8605C155.835 29.9376 156.088 29.9756 156.241 29.9756C156.426 29.9756 156.632 29.9146 156.862 29.7916L157.299 29.5388C157.391 29.4927 157.475 29.4316 157.552 29.3548C157.629 29.2782 157.698 29.2093 157.759 29.1479C157.79 29.1173 157.836 29.0673 157.897 28.9984C157.958 28.9294 158.016 28.8833 158.069 28.8605C158.123 28.8374 158.173 28.826 158.219 28.826C158.28 28.826 158.349 28.8605 158.426 28.9294C158.502 28.9984 158.564 29.0483 158.61 29.0787C158.748 29.0787 158.779 29.1748 158.702 29.3662C158.625 29.5581 158.46 29.7802 158.207 30.0332C157.955 30.2859 157.667 30.5123 157.345 30.7113C156.962 31.0487 156.502 31.2173 155.966 31.2173ZM158.116 25.262C158.384 24.9859 158.518 24.756 158.518 24.5722C158.518 24.3882 158.449 24.2351 158.311 24.1124C158.173 23.9897 157.981 23.9283 157.736 23.9283C157.552 23.9283 157.414 23.9438 157.322 23.9742C157.107 24.0358 156.854 24.2006 156.563 24.4685C156.272 24.737 156.019 25.009 155.805 25.2848C155.59 25.5609 155.506 25.7218 155.552 25.7677C155.628 25.9056 155.927 25.9749 156.449 25.9749C156.801 25.9749 157.092 25.9287 157.322 25.8367C157.583 25.7297 157.847 25.5378 158.116 25.262Z" fill="#F1F2F5"/>
<path d="M167.199 30.6999C166.961 30.3399 166.843 29.9835 166.843 29.6306C166.843 29.3858 166.9 28.9449 167.015 28.3086C167.13 27.6726 167.271 27.0479 167.44 26.4347C167.532 26.1586 167.578 25.9597 167.578 25.8367C167.578 25.7601 167.547 25.7219 167.486 25.7219C167.425 25.7219 167.241 25.8139 166.935 25.9976C166.444 26.2585 166.107 26.4961 165.923 26.7105C165.846 26.7719 165.723 26.8794 165.555 27.0325C165.386 27.1858 165.233 27.3083 165.095 27.4003C164.804 27.6302 164.417 27.9636 163.934 28.4006C163.451 28.8374 163.056 29.2093 162.75 29.5158C162.658 29.6846 162.527 29.7688 162.359 29.7688C162.313 29.7688 162.244 29.7536 162.152 29.7226C161.968 29.6768 161.807 29.5733 161.669 29.4124C161.531 29.2514 161.462 29.0787 161.462 28.8949C161.462 28.665 161.596 28.1821 161.864 27.4464C162.132 26.7105 162.466 25.9056 162.865 25.0321C162.926 24.9249 162.98 24.7677 163.026 24.5605C163.072 24.3537 163.094 24.1582 163.094 23.9742C163.094 23.8673 163.118 23.7443 163.163 23.6064C163.21 23.4685 163.263 23.3688 163.324 23.3075C163.371 23.2309 163.44 23.1924 163.532 23.1924C163.73 23.1924 163.899 23.3075 164.037 23.5374C164.282 23.7673 164.405 24.0586 164.405 24.4113C164.405 24.7025 164.321 25.0779 164.152 25.5378C164.045 25.7528 163.964 25.9252 163.911 26.0552C163.857 26.1855 163.823 26.2737 163.807 26.3196C163.853 26.3196 164.052 26.2127 164.405 25.9976L164.98 25.6529L165.67 25.1238C166.022 24.848 166.222 24.7101 166.268 24.7101C166.329 24.7101 166.406 24.687 166.497 24.6412C166.59 24.595 166.666 24.5416 166.727 24.4802C166.774 24.434 166.816 24.4037 166.854 24.3882C166.892 24.373 166.919 24.3651 166.935 24.3651C166.949 24.3651 166.988 24.3575 167.049 24.3423C167.11 24.3271 167.164 24.2961 167.21 24.2503C167.271 24.1892 167.379 24.1582 167.532 24.1582C167.747 24.1582 167.961 24.2272 168.176 24.3651C168.391 24.5033 168.498 24.6567 168.498 24.8249C168.498 24.8711 168.513 24.9135 168.544 24.9514C168.575 24.99 168.597 25.0169 168.613 25.0321C168.674 25.0321 168.728 25.1124 168.774 25.2734C168.82 25.4344 168.843 25.6298 168.843 25.8598C168.843 26.1972 168.805 26.4806 168.728 26.7105C168.728 26.8794 168.697 27.0938 168.636 27.3544C168.575 27.6153 168.536 27.7836 168.521 27.8601L168.383 28.4579C168.184 29.0714 168.084 29.5771 168.084 29.9756C168.084 30.2824 168.145 30.5199 168.268 30.6885C168.299 30.7498 168.314 30.8112 168.314 30.8722C168.314 30.9643 168.28 31.0487 168.211 31.1253C168.142 31.2021 168.038 31.2404 167.9 31.2404C167.67 31.2404 167.436 31.0601 167.199 30.6999Z" fill="#F1F2F5"/>
<path d="M172.28 32.2405C172.088 32.0337 171.993 31.7231 171.993 31.3094C171.993 31.2022 172.008 31.0105 172.039 30.7344C172.1 30.52 172.146 30.3056 172.177 30.0905C172.253 29.7537 172.33 29.5541 172.407 29.4928C172.422 29.4776 172.437 29.4469 172.453 29.4008C172.468 29.3549 172.453 29.3169 172.407 29.2859C172.407 29.087 172.476 28.8109 172.614 28.458C172.644 28.351 172.683 28.2435 172.729 28.1363C172.775 28.0291 172.805 27.9601 172.82 27.9292C172.79 27.8988 172.775 27.8526 172.775 27.7913C172.775 27.7147 172.817 27.6382 172.901 27.5614C172.985 27.4848 173.047 27.4159 173.085 27.3545C173.123 27.2934 173.12 27.2318 173.073 27.1704C173.043 27.0939 173.189 26.7492 173.51 26.1356C173.709 25.7374 173.817 25.5148 173.832 25.4689C173.817 25.4231 173.928 25.1394 174.166 24.6182C174.403 24.0973 174.591 23.7064 174.729 23.4455C174.867 23.3689 174.813 23.3155 174.568 23.2845C174.323 23.2541 174.024 23.2465 173.671 23.2617C173.166 23.2465 172.775 23.2196 172.499 23.1811C172.223 23.1431 172 23.0777 171.832 22.9856C171.694 22.8171 171.625 22.6868 171.625 22.5947C171.625 22.4416 171.809 22.3572 172.177 22.3417C172.575 22.3268 173.189 22.2728 174.016 22.1807L175.189 22.089L175.258 21.6981C175.472 21.33 175.626 21.0428 175.718 20.8357C175.81 20.6288 175.879 20.3954 175.925 20.1345C175.971 20.0734 176.051 19.9201 176.166 19.6746C176.281 19.4295 176.354 19.1917 176.384 18.9618C176.553 18.6708 176.71 18.3909 176.856 18.1224C177.001 17.8545 177.089 17.697 177.12 17.6512C177.289 17.5133 177.404 17.4443 177.465 17.4443C177.557 17.4443 177.71 17.5212 177.925 17.6743C178.308 17.9349 178.5 18.1569 178.5 18.341C178.5 18.433 178.454 18.525 178.362 18.6168C178.301 18.7397 178.209 18.9849 178.086 19.3527C177.979 19.4906 177.864 19.6784 177.741 19.916C177.618 20.1538 177.534 20.3799 177.488 20.5943C177.366 20.8552 177.247 21.0887 177.132 21.2955C177.017 21.5027 176.936 21.6061 176.89 21.6061C176.905 21.6981 176.936 21.7595 176.983 21.7901C177.028 21.8208 177.105 21.836 177.212 21.836C177.289 21.836 177.385 21.8284 177.5 21.8129C177.615 21.798 177.756 21.7901 177.925 21.7901C178.078 21.7749 178.212 21.7519 178.328 21.7209C178.442 21.6905 178.553 21.675 178.661 21.675C178.737 21.675 178.83 21.6981 178.937 21.744C179.09 21.9435 179.167 22.1504 179.167 22.3648C179.167 22.5337 179.098 22.6561 178.96 22.7326C178.883 22.7481 178.714 22.7943 178.454 22.8708C178.193 22.9476 177.91 22.9935 177.603 23.0087L176.384 23.1235L175.994 23.9053C175.886 24.0894 175.794 24.2658 175.718 24.4341C175.641 24.603 175.587 24.7026 175.557 24.7333C175.557 24.8101 175.495 24.9632 175.373 25.1931C175.25 25.4231 175.158 25.6068 175.097 25.7447C175.02 25.9598 174.928 26.1701 174.821 26.3772C174.714 26.5841 174.645 26.7185 174.614 26.7795C174.568 26.7795 174.541 26.7909 174.534 26.814C174.526 26.8371 174.522 26.8716 174.522 26.9174L174.568 27.1015C174.568 27.1783 174.53 27.2549 174.453 27.3314C174.392 27.3624 174.334 27.4159 174.281 27.4924C174.227 27.5692 174.192 27.6227 174.177 27.6534C174.208 27.6843 174.223 27.7223 174.223 27.7682C174.223 27.8757 174.169 28.0136 174.062 28.1822C174.062 28.4431 173.955 28.834 173.74 29.3549C173.755 29.6307 173.771 29.8071 173.786 29.8837C173.802 29.9605 173.84 29.9912 173.901 29.9757H173.993L174.292 29.9526C174.507 29.8606 174.392 30.3976 173.947 31.5621L173.579 32.1829C173.564 32.2136 173.51 32.3016 173.419 32.4473C173.326 32.5931 173.25 32.6659 173.189 32.6659C172.775 32.589 172.472 32.4473 172.28 32.2405Z" fill="#F1F2F5"/>
<path d="M183.708 31.4012C183.531 31.2943 183.359 31.1333 183.19 30.9186C183.067 30.7194 182.995 30.5125 182.972 30.2978C182.949 30.0833 182.937 29.6387 182.937 28.9641C182.937 28.811 182.906 28.7342 182.845 28.7342C182.799 28.7342 182.692 28.8072 182.523 28.9527C182.354 29.0985 182.147 29.2939 181.902 29.5391C181.504 29.9224 181.136 30.2212 180.799 30.4357C180.461 30.6504 180.185 30.75 179.971 30.7346C179.802 30.7346 179.622 30.6197 179.431 30.3898C179.239 30.1599 179.089 29.8917 178.982 29.5849C178.936 29.4009 178.913 29.1864 178.913 28.941C178.913 28.2974 179.047 27.5156 179.316 26.5959C179.584 25.6759 179.898 24.8827 180.258 24.216C180.618 23.549 180.937 23.2157 181.213 23.2157C181.442 23.2157 181.657 23.4687 181.856 23.9744C181.902 24.0664 181.925 24.1433 181.925 24.2043C181.925 24.3118 181.864 24.4193 181.741 24.5263C181.511 24.8178 181.243 25.339 180.937 26.0899C180.63 26.841 180.388 27.5384 180.212 28.1823C180.036 28.8262 180.002 29.1482 180.109 29.1482C180.324 29.1482 180.576 29.064 180.868 28.8951C181.159 28.7266 181.45 28.5042 181.741 28.2282C182.033 27.9372 182.293 27.6269 182.523 27.2971C182.753 26.9675 183.037 26.5193 183.374 25.952C184.018 24.9251 184.37 24.3273 184.432 24.1584C184.662 23.7296 184.826 23.4497 184.926 23.3191C185.025 23.1891 185.152 23.1008 185.305 23.0547H185.627C185.719 23.0702 185.827 23.1391 185.949 23.2618C186.056 23.3077 186.122 23.3577 186.145 23.4111C186.168 23.4652 186.179 23.5376 186.179 23.6296L185.811 24.4804L185.604 24.9633C185.589 25.0247 185.505 25.2011 185.351 25.4921C184.999 26.2739 184.731 26.9027 184.547 27.3774C184.363 27.8527 184.225 28.3433 184.133 28.849C184.117 28.9261 184.11 29.0561 184.11 29.2399C184.11 29.6997 184.156 30.0217 184.248 30.2057C184.386 30.4815 184.524 30.6811 184.662 30.8035C184.738 30.8649 184.777 30.9265 184.777 30.9876C184.777 31.0951 184.688 31.2023 184.512 31.3095C184.336 31.4167 184.209 31.4705 184.133 31.4705C184.025 31.5315 183.883 31.5088 183.708 31.4012Z" fill="#F1F2F5"/>
<path d="M187.42 30.4586C187.375 30.3821 187.352 30.267 187.352 30.1136C187.352 29.9757 187.359 29.8606 187.375 29.7688C187.42 29.2476 187.535 28.642 187.719 27.9522L187.834 27.4924C187.88 27.1093 188.148 26.3045 188.639 25.078C189.13 23.8518 189.528 23.0166 189.835 22.5716C189.957 22.4951 190.088 22.4568 190.226 22.4568C190.425 22.4568 190.594 22.5257 190.731 22.6636C190.824 22.7253 190.869 22.8401 190.869 23.0087C190.869 23.162 190.812 23.3879 190.697 23.687C190.582 23.9859 190.387 24.4268 190.111 25.009C190.049 25.132 189.946 25.362 189.8 25.6988C189.654 26.0363 189.582 26.2355 189.582 26.2966C189.582 26.3275 189.589 26.3427 189.605 26.3427C189.635 26.3427 189.666 26.331 189.697 26.3083C189.727 26.2852 189.758 26.2662 189.789 26.2507C189.957 25.9597 190.367 25.5609 191.019 25.0549C191.67 24.5492 192.119 24.2351 192.364 24.1124C192.471 24.0511 192.609 23.9897 192.778 23.9284C192.947 23.8673 193.061 23.8211 193.123 23.7905C193.368 23.6678 193.659 23.6064 193.997 23.6064C194.211 23.6064 194.399 23.6409 194.56 23.7098C194.721 23.7788 194.832 23.8825 194.894 24.0204C194.908 24.1276 194.951 24.2121 195.02 24.2731C195.089 24.3348 195.138 24.373 195.169 24.3882C195.215 24.3882 195.246 24.4075 195.261 24.4458C195.276 24.484 195.284 24.5112 195.284 24.5261C195.284 24.6336 195.223 24.6985 195.1 24.7216C194.977 24.7446 194.755 24.7639 194.433 24.7791C194.265 24.7946 194.089 24.8329 193.905 24.8939C193.721 24.9556 193.537 25.0321 193.353 25.1239C192.494 25.6147 191.854 25.9977 191.433 26.2738C191.011 26.5496 190.586 26.9253 190.157 27.4003C189.988 27.5844 189.766 27.9142 189.49 28.389C189.383 28.4965 189.272 28.7764 189.156 29.2283C189.042 29.6806 188.984 29.9605 188.984 30.0677C188.969 30.1136 188.938 30.2021 188.892 30.3321C188.846 30.4624 188.777 30.5889 188.685 30.7113C188.501 30.9567 188.348 31.0794 188.225 31.0794C188.087 31.0794 187.903 30.9567 187.674 30.7113C187.551 30.6196 187.466 30.5354 187.42 30.4586Z" fill="#F1F2F5"/>
<path d="M196.089 30.1942C195.889 29.8801 195.79 29.4392 195.79 28.8719C195.79 28.5961 195.813 28.2741 195.859 27.9063L195.905 27.0783C195.905 26.9404 195.889 26.8335 195.859 26.7564C195.828 26.6798 195.759 26.5957 195.652 26.5037C195.621 26.473 195.545 26.3965 195.422 26.2738C195.299 26.151 195.246 26.0517 195.261 25.9749L195.238 25.8598C195.238 25.7528 195.257 25.6529 195.296 25.5609C195.334 25.4689 195.376 25.423 195.422 25.423C195.468 25.423 195.529 25.4113 195.606 25.3885C195.683 25.3654 195.752 25.3619 195.813 25.3768C196.028 25.3768 196.135 25.423 196.135 25.5147C196.196 25.6377 196.3 25.6491 196.445 25.5495C196.591 25.4499 196.733 25.2544 196.871 24.9631C197.085 24.626 197.403 24.2696 197.825 23.8939C198.246 23.5184 198.595 23.254 198.871 23.1007C198.978 23.0396 199.155 22.982 199.4 22.928C199.645 22.8745 199.86 22.8477 200.044 22.8477C200.32 22.8477 200.561 22.909 200.768 23.0314C200.975 23.1544 201.186 23.3306 201.4 23.5605C201.691 23.7752 201.837 24.1124 201.837 24.5722C201.837 24.8939 201.761 25.2237 201.608 25.5609C201.546 25.7908 201.305 26.0821 200.883 26.4347C200.461 26.7874 200.074 27.0325 199.722 27.1704C199.292 27.2779 198.802 27.3313 198.25 27.3313C197.883 27.3313 197.645 27.3007 197.538 27.2393C197.354 27.1324 197.223 27.5461 197.147 28.481C197.131 28.5885 197.124 28.734 197.124 28.918C197.124 29.1786 197.162 29.3858 197.239 29.5389C197.254 29.5541 197.308 29.6116 197.4 29.7112C197.492 29.8112 197.606 29.895 197.745 29.9642C197.883 30.0332 198.028 30.0677 198.181 30.0677C198.319 30.0677 198.427 30.0525 198.503 30.0215C198.672 29.9756 198.833 29.8877 198.986 29.7571C199.139 29.6271 199.354 29.4238 199.63 29.148C199.875 28.9028 200.052 28.734 200.159 28.642C200.235 28.5041 200.389 28.4351 200.619 28.4351C200.68 28.4351 200.787 28.4506 200.941 28.481C201.079 28.5885 201.148 28.7033 201.148 28.826C201.148 28.9487 201.071 29.1786 200.918 29.5158C200.841 29.6692 200.653 29.8801 200.354 30.148C200.055 30.4165 199.791 30.6274 199.561 30.7802C199.086 31.0411 198.61 31.1711 198.135 31.1711C197.844 31.1711 197.507 31.1022 197.124 30.9643C196.633 30.7653 196.288 30.5085 196.089 30.1942ZM199.147 26.1817C199.438 26.1356 199.68 26.0321 199.872 25.8712C200.063 25.7102 200.289 25.4309 200.55 25.0321C200.596 24.9094 200.619 24.787 200.619 24.664C200.619 24.4341 200.573 24.2731 200.481 24.1813C200.373 24.0741 200.251 24.0204 200.113 24.0204C199.898 24.0204 199.676 24.1124 199.446 24.2962C199.292 24.3423 199.067 24.5112 198.768 24.8022C198.469 25.0934 198.212 25.3809 197.997 25.6643C197.783 25.9483 197.714 26.1128 197.791 26.1586C197.76 26.2048 197.836 26.2393 198.02 26.2621C198.205 26.2851 198.357 26.2965 198.48 26.2965C198.633 26.2662 198.856 26.2276 199.147 26.1817Z" fill="#F1F2F5"/>
<path d="M203.469 31.0105C203.086 30.7958 202.833 30.5045 202.711 30.1367C202.603 29.8606 202.55 29.7075 202.55 29.6769C202.55 29.5848 202.603 29.5159 202.711 29.4697C202.818 29.4697 202.944 29.5159 203.09 29.6079C203.236 29.6997 203.355 29.7613 203.446 29.7917C203.676 30.0067 203.99 30.1136 204.389 30.1136C204.696 30.1136 204.976 30.0526 205.229 29.9296C205.482 29.8072 205.623 29.6617 205.654 29.4928C205.654 29.4163 205.577 29.1481 205.424 28.6879C205.041 28.1363 204.746 27.5728 204.539 26.9981C204.332 26.4231 204.228 25.9367 204.228 25.5379C204.228 25.2469 204.312 24.9481 204.481 24.6413C204.65 24.3348 204.88 24.0742 205.171 23.8595C205.554 23.461 206.018 23.1008 206.562 22.7788C207.106 22.4569 207.601 22.2348 208.045 22.1118C208.229 22.1118 208.455 22.1349 208.724 22.1808C208.992 22.2269 209.179 22.2807 209.287 22.3417C209.455 22.4034 209.616 22.5717 209.77 22.8478C209.923 23.1235 210 23.3844 210 23.6296C210 23.875 209.869 24.2121 209.609 24.6413C209.578 24.7485 209.517 24.894 209.425 25.0781C209.333 25.2621 209.287 25.3769 209.287 25.4231C209.226 25.5765 209.126 25.653 208.988 25.653C208.85 25.653 208.716 25.5879 208.586 25.4576C208.455 25.3276 208.352 25.1701 208.275 24.986C208.229 24.8023 208.206 24.6413 208.206 24.5034C208.206 24.3193 208.267 24.1353 208.39 23.9515C208.559 23.7829 208.643 23.6678 208.643 23.6065C208.643 23.5454 208.559 23.5145 208.39 23.5145C208.206 23.5145 207.853 23.6605 207.332 23.9515C206.811 24.2428 206.397 24.5493 206.091 24.8712C205.815 25.1321 205.646 25.3276 205.585 25.4576C205.524 25.5879 205.493 25.7833 205.493 26.0439C205.493 26.2738 205.543 26.5461 205.643 26.8602C205.742 27.1746 205.845 27.3852 205.953 27.4924C205.983 27.5538 206.048 27.6844 206.148 27.8833C206.248 28.0826 206.367 28.2742 206.505 28.458C206.811 29.1481 206.965 29.6848 206.965 30.0678C206.965 30.5124 206.792 30.8344 206.447 31.0333C206.102 31.2329 205.562 31.3322 204.826 31.3322C204.305 31.3322 203.853 31.2253 203.469 31.0105Z" fill="#F1F2F5"/>
<path d="M7.20087 0.398682H10.363L17.5641 18.9989H12.4623L11.612 16.3152H5.9255L5.0752 18.9989H0L7.20087 0.398682ZM10.4162 12.4621L8.76865 7.30715L7.14784 12.4621H10.4162Z" fill="#F1F2F5"/>
<path d="M18.5205 11.3198V0.398682H23.3035V11.3198C23.3035 12.4355 23.8615 14.4816 26.4656 14.4816C29.0961 14.4816 29.6542 12.4355 29.6542 11.3198V0.398682H34.4372V11.3198C34.4372 15.9431 31.3548 19.2645 26.4656 19.2645C21.5763 19.2645 18.5205 15.9431 18.5205 11.3198Z" fill="#F1F2F5"/>
<path d="M36.7215 16.7403L38.9536 12.3822C40.3351 13.6313 43.2847 14.8535 44.4272 14.8535C45.5167 14.8535 46.1278 14.5612 46.1278 13.9767C46.1278 13.0465 45.3307 12.6748 44.0818 12.1698C40.8932 10.9476 36.9339 9.43283 36.9339 5.633C36.9339 2.33819 39.0864 0.132568 43.9756 0.132568C46.5531 0.132568 48.8117 0.664188 50.6451 2.31159L48.0676 6.11143C47.1641 5.02191 45.0651 4.30444 43.8959 4.30444C42.4078 4.30444 41.7435 4.91552 41.7435 5.42055C41.7435 6.05823 42.3812 6.40367 43.8161 6.96156C46.2874 7.94501 51.15 8.95473 51.15 13.9767C51.15 17.4045 48.2005 19.2644 44.135 19.2644C41.7169 19.2644 38.8738 18.3611 36.7215 16.7403Z" fill="#F1F2F5"/>
<path d="M57.0752 4.99546H52.2922V0.398682H66.6411V4.99546H61.8581V18.9989H57.0752V4.99546Z" fill="#F1F2F5"/>
<path d="M68.8459 0.398682H73.6289V18.9989H68.8459V0.398682Z" fill="#F1F2F5"/>
<path d="M82.1853 8.95487V18.9989H77.4023V0.398682H80.4581L89.466 10.3895V0.398682H94.2489V19.0255H91.1932L82.1853 8.95487Z" fill="#F1F2F5"/>
<path d="M97.4893 9.6985C97.4893 4.0654 101.767 0.15918 107.055 0.15918C109.819 0.15918 112.29 1.30189 114.017 3.18834L113.14 4.0654C111.785 2.3648 109.633 1.30189 107.055 1.30189C102.378 1.30189 98.738 4.83607 98.738 9.6985C98.738 14.5612 102.378 18.122 107.055 18.122C109.42 18.122 111.599 17.1386 113.007 15.5444V10.4958H107.055V9.37965H114.15V16.1555L113.672 16.5807C112.396 17.8295 110.749 18.7065 108.942 19.0786C108.384 19.1846 107.772 19.2644 107.135 19.2644H107.055C101.767 19.2644 97.4893 15.3319 97.4893 9.6985Z" fill="#F1F2F5"/>
<path d="M118.002 0.398682H124.432C129.401 0.398682 131.66 2.17875 131.66 6.16476C131.66 9.35318 129.88 10.6555 126.904 11.0538L132.244 18.9989H130.836L125.628 11.1602C125.23 11.1868 124.831 11.1868 124.432 11.1868H119.198V18.9989H118.002V0.398682ZM124.432 10.0707C127.408 10.0707 130.384 9.77842 130.384 6.19136C130.384 1.62086 126.797 1.56766 124.432 1.56766H119.198V10.0707H124.432V10.0707Z" fill="#F1F2F5"/>
<path d="M134.264 9.56591C134.264 4.14527 138.462 0 143.83 0C149.171 0 153.396 4.14527 153.396 9.56591C153.396 14.9866 149.171 19.1318 143.83 19.1318C138.462 19.1318 134.264 14.9866 134.264 9.56591ZM143.83 17.9891C148.373 17.9891 152.173 14.4815 152.173 9.56591C152.173 4.59678 148.373 1.08951 143.83 1.14271C139.206 1.08951 135.486 4.59678 135.539 9.56591C135.486 14.4815 139.206 17.9891 143.83 17.9891Z" fill="#F1F2F5"/>
<path d="M154.538 0.398682H155.813L160.49 16.5542L165.194 0.398682H165.911L170.641 16.5542L175.317 0.398682H176.593L171.039 18.9989H170.322L165.566 2.81676L160.809 18.9989H160.092L154.538 0.398682Z" fill="#F1F2F5"/>
<path d="M184.005 1.59426H178.026V0.398682H191.179V1.59426H185.201V18.9989H184.005V1.59426Z" fill="#F1F2F5"/>
<path d="M193.677 0.398682H194.873V9.35318H206.724V0.398682H207.919V18.9989H206.724V10.4693H194.873V18.9989H193.677V0.398682Z" fill="#F1F2F5"/>
</svg>
