<svg width="208" height="20" viewBox="0 0 208 20" fill="none" xmlns="http://www.w3.org/2000/svg">
<path d="M7.20087 0.402344H10.363L17.5641 19.1929H12.4623L11.612 16.4817H5.9255L5.0752 19.1929H0L7.20087 0.402344ZM10.4162 12.5892L8.76865 7.38149L7.14784 12.5892H10.4162Z" fill="#005D7D"/>
<path d="M18.5205 11.4352V0.402344H23.3035V11.4352C23.3035 12.5624 23.8615 14.6293 26.4656 14.6293C29.0961 14.6293 29.6542 12.5624 29.6542 11.4352V0.402344H34.4372V11.4352C34.4372 16.1058 31.3548 19.4612 26.4656 19.4612C21.5763 19.4612 18.5205 16.1058 18.5205 11.4352Z" fill="#005D7D"/>
<path d="M36.7214 16.9119L38.9535 12.5092C40.3351 13.7711 43.2846 15.0058 44.4272 15.0058C45.5167 15.0058 46.1278 14.7106 46.1278 14.1201C46.1278 13.1803 45.3307 12.8048 44.0817 12.2946C40.8931 11.0599 36.9339 9.52969 36.9339 5.69099C36.9339 2.36247 39.0863 0.134277 43.9755 0.134277C46.553 0.134277 48.8117 0.671336 50.6451 2.3356L48.0676 6.17431C47.1641 5.07365 45.065 4.34883 43.8959 4.34883C42.4077 4.34883 41.7434 4.96617 41.7434 5.47636C41.7434 6.12057 42.3811 6.46954 43.8161 7.03314C46.2873 8.02665 51.1499 9.0467 51.1499 14.1201C51.1499 17.583 48.2004 19.4618 44.1349 19.4618C41.7168 19.4618 38.8737 18.5493 36.7214 16.9119Z" fill="#005D7D"/>
<path d="M57.0752 5.04615H52.2922V0.402344H66.6411V5.04615H61.8581V19.1929H57.0752V5.04615Z" fill="#005D7D"/>
<path d="M68.8459 0.402344H73.6289V19.1929H68.8459V0.402344Z" fill="#005D7D"/>
<path d="M82.1853 9.04608V19.1929H77.4023V0.402344H80.4581L89.466 10.4954V0.402344H94.2489V19.2197H91.1932L82.1853 9.04608Z" fill="#005D7D"/>
<path d="M97.4893 9.79756C97.4893 4.10683 101.767 0.160645 107.055 0.160645C109.819 0.160645 112.29 1.31504 114.017 3.2208L113.14 4.10683C111.785 2.38883 109.633 1.31504 107.055 1.31504C102.378 1.31504 98.738 4.88539 98.738 9.79756C98.738 14.7101 102.378 18.3073 107.055 18.3073C109.42 18.3073 111.599 17.3138 113.007 15.7032V10.603H107.055V9.47545H114.15V16.3206L113.672 16.7502C112.396 18.0117 110.749 18.8977 108.942 19.2736C108.384 19.3807 107.772 19.4613 107.135 19.4613H107.055C101.767 19.4613 97.4893 15.4886 97.4893 9.79756Z" fill="#171F23"/>
<path d="M118.002 0.402344H124.432C129.401 0.402344 131.66 2.20062 131.66 6.22742C131.66 9.44846 129.88 10.7641 126.904 11.1665L132.244 19.1929H130.836L125.628 11.2739C125.23 11.3008 124.831 11.3008 124.432 11.3008H119.198V19.1929H118.002V0.402344ZM124.432 10.1733C127.408 10.1733 130.384 9.87804 130.384 6.25429C130.384 1.63702 126.797 1.58328 124.432 1.58328H119.198V10.1733H124.432V10.1733Z" fill="#171F23"/>
<path d="M134.264 9.66378C134.264 4.18768 138.462 0 143.83 0C149.171 0 153.396 4.18768 153.396 9.66378C153.396 15.1399 149.171 19.3276 143.83 19.3276C138.462 19.3276 134.264 15.1399 134.264 9.66378ZM143.83 18.1732C148.373 18.1732 152.173 14.6297 152.173 9.66378C152.173 4.64381 148.373 1.10066 143.83 1.1544C139.206 1.10066 135.486 4.64381 135.539 9.66378C135.486 14.6297 139.206 18.1732 143.83 18.1732Z" fill="#171F23"/>
<path d="M154.538 0.402344H155.813L160.49 16.7232L165.194 0.402344H165.911L170.641 16.7232L175.317 0.402344H176.593L171.039 19.1929H170.322L165.566 2.84516L160.809 19.1929H160.092L154.538 0.402344Z" fill="#171F23"/>
<path d="M184.005 1.61015H178.026V0.402344H191.179V1.61015H185.201V19.1929H184.005V1.61015Z" fill="#171F23"/>
<path d="M193.677 0.402344H194.873V9.44846H206.724V0.402344H207.919V19.1929H206.724V10.576H194.873V19.1929H193.677V0.402344Z" fill="#171F23"/>
</svg>
