<svg width="112" height="13" viewBox="0 0 112 13" fill="none" xmlns="http://www.w3.org/2000/svg">
<path d="M0.113281 12.7296V0.318645H6.16628C7.58913 0.318645 8.66212 0.670728 9.38521 1.3749C10.1083 2.06732 10.4698 3.01208 10.4698 4.20917C10.4698 5.39451 10.1083 6.33927 9.38521 7.04344C8.66212 7.7476 7.58913 8.09969 6.16628 8.09969H3.34971V12.7296H0.113281ZM3.34971 5.5999H5.74642C6.29456 5.5999 6.70276 5.48253 6.97101 5.24781C7.23925 5.00135 7.37338 4.65513 7.37338 4.20917C7.37338 3.7632 7.23925 3.41698 6.97101 3.17052C6.70276 2.92406 6.29456 2.80083 5.74642 2.80083H3.34971V5.5999ZM9.25181 12.7296L15.0249 0.318645H17.649L23.4571 12.7296H20.2206L18.7336 9.31437L19.9757 10.2122H12.7332L13.9577 9.31437L12.4882 12.7296H9.25181ZM16.3194 3.66344L14.2726 8.575L13.7828 7.7476H18.9086L18.4712 8.575L16.4069 3.66344H16.3194ZM24.219 12.7296V0.318645H26.5982L32.8436 8.11729H32.3363V0.318645H35.3278V12.7296H32.9486L26.7382 4.93094H27.2455V12.7296H24.219ZM43.789 12.9232C42.4477 12.9232 41.2873 12.6592 40.3076 12.131C39.3395 11.6029 38.5872 10.8577 38.0509 9.89531C37.526 8.93295 37.2636 7.80628 37.2636 6.51531C37.2636 5.22434 37.526 4.10354 38.0509 3.15292C38.5872 2.19055 39.3395 1.44531 40.3076 0.917188C41.2873 0.389063 42.4477 0.125 43.789 0.125C44.6402 0.125 45.4159 0.242361 46.1157 0.477082C46.8154 0.700069 47.4043 1.02281 47.8826 1.44531L46.9204 3.99792C46.3839 3.61063 45.8883 3.3407 45.4334 3.18813C44.9901 3.02382 44.4828 2.94167 43.9114 2.94167C42.8618 2.94167 42.0511 3.25268 41.4797 3.87469C40.9199 4.48497 40.64 5.36518 40.64 6.51531C40.64 7.67719 40.9199 8.56914 41.4797 9.19115C42.0511 9.80143 42.8618 10.1066 43.9114 10.1066C44.4828 10.1066 44.9901 10.0303 45.4334 9.87771C45.8883 9.71341 46.3839 9.4376 46.9204 9.05031L47.8826 11.6029C47.4043 12.0254 46.8154 12.354 46.1157 12.5887C45.4159 12.8117 44.6402 12.9232 43.789 12.9232ZM49.572 12.7296V0.318645H52.8084V5.10698H57.7768V0.318645H61.0132V12.7296H57.7768V7.76521H52.8084V12.7296H49.572ZM63.2905 12.7296V0.318645H72.1426V2.80083H66.387V5.1774H71.7227V7.67719H66.387V10.2298H72.1426V12.7296H63.2905ZM73.8315 12.7296V0.318645H76.2107L82.4561 8.11729H81.9488V0.318645H84.9403V12.7296H82.5611L76.3506 4.93094H76.858V12.7296H73.8315ZM87.2085 12.7296V0.318645H90.4449V5.6351H90.4799L95.2033 0.318645H98.9821L92.9991 6.84979V5.56469L99.3145 12.7296H95.4133L90.4799 7.13146H90.4449V12.7296H87.2085ZM98.7324 6.51531C98.7324 5.22434 98.9832 4.10354 99.4847 3.15292C99.9862 2.19055 100.704 1.44531 101.636 0.917188C102.569 0.389063 103.672 0.125 104.943 0.125C106.226 0.125 107.334 0.389063 108.267 0.917188C109.2 1.44531 109.917 2.19055 110.419 3.15292C110.932 4.10354 111.188 5.22434 111.188 6.51531C111.188 7.79455 110.932 8.91534 110.419 9.87771C109.917 10.8401 109.2 11.5912 108.267 12.131C107.334 12.6592 106.226 12.9232 104.943 12.9232C103.672 12.9232 102.569 12.6592 101.636 12.131C100.715 11.5912 99.9978 10.8401 99.4847 9.87771C98.9832 8.91534 98.7324 7.79455 98.7324 6.51531ZM102.109 6.51531C102.109 7.67719 102.342 8.58674 102.809 9.24396C103.275 9.88945 103.986 10.2122 104.943 10.2122C105.899 10.2122 106.617 9.88945 107.095 9.24396C107.573 8.58674 107.812 7.67719 107.812 6.51531C107.812 5.35344 107.573 4.44976 107.095 3.80427C106.617 3.15878 105.899 2.83604 104.943 2.83604C103.986 2.83604 103.275 3.15878 102.809 3.80427C102.342 4.43802 102.109 5.3417 102.109 6.51531Z" fill="#45474D"/>
</svg>
