<svg width="80" height="80" viewBox="0 0 80 80" fill="none" xmlns="http://www.w3.org/2000/svg">
<circle cx="40" cy="40" r="39.5" stroke="#005D7D"/>
<path d="M49.5331 35.1079C49.5483 35.3211 49.5483 35.5343 49.5483 35.7475C49.5483 42.25 44.5991 49.7424 35.5533 49.7424C32.7665 49.7424 30.1777 48.9353 28 47.5343C28.396 47.58 28.7766 47.5952 29.1878 47.5952C31.4873 47.5952 33.6041 46.8186 35.2944 45.4937C33.132 45.448 31.3198 44.0318 30.6954 42.0825C31 42.1282 31.3046 42.1586 31.6244 42.1586C32.066 42.1586 32.5077 42.0977 32.9188 41.9912C30.665 41.5343 28.9746 39.5546 28.9746 37.1637V37.1028C29.6294 37.4683 30.3909 37.6967 31.1979 37.7272C29.873 36.8439 29.0051 35.3363 29.0051 33.6307C29.0051 32.717 29.2487 31.8794 29.6751 31.1485C32.0964 34.1332 35.736 36.0824 39.8172 36.2957C39.7411 35.9302 39.6954 35.5495 39.6954 35.1688C39.6954 32.4581 41.8883 30.25 44.6142 30.25C46.0304 30.25 47.3096 30.8439 48.2081 31.8033C49.3198 31.5901 50.3858 31.1789 51.33 30.6155C50.9644 31.7576 50.1878 32.717 49.1675 33.3261C50.1574 33.2196 51.1168 32.9454 52 32.5647C51.3301 33.5393 50.4924 34.4073 49.5331 35.1079Z" fill="#005D7D"/>
</svg>
