<svg width="140" height="140" viewBox="0 0 140 140" fill="none" xmlns="http://www.w3.org/2000/svg">
<circle cx="70" cy="70" r="69.5" transform="rotate(-90 70 70)" stroke="#F1F2F5"/>
<path d="M54.9377 77.27C54.0317 77.27 53.2157 77.12 52.4897 76.82C51.7697 76.514 51.1727 76.082 50.6987 75.524C50.2307 74.966 49.9247 74.303 49.7807 73.535L51.1307 73.31C51.3467 74.15 51.8027 74.81 52.4987 75.29C53.1947 75.764 54.0257 76.001 54.9917 76.001C55.6277 76.001 56.1977 75.902 56.7017 75.704C57.2057 75.5 57.6017 75.212 57.8897 74.84C58.1777 74.468 58.3217 74.027 58.3217 73.517C58.3217 73.181 58.2617 72.896 58.1417 72.662C58.0217 72.422 57.8627 72.224 57.6647 72.068C57.4667 71.912 57.2507 71.783 57.0167 71.681C56.7827 71.573 56.5547 71.486 56.3327 71.42L53.0477 70.439C52.6517 70.325 52.2857 70.181 51.9497 70.007C51.6137 69.827 51.3197 69.614 51.0677 69.368C50.8217 69.116 50.6297 68.822 50.4917 68.486C50.3537 68.15 50.2847 67.766 50.2847 67.334C50.2847 66.602 50.4767 65.969 50.8607 65.435C51.2447 64.901 51.7697 64.49 52.4357 64.202C53.1017 63.914 53.8607 63.773 54.7127 63.779C55.5767 63.779 56.3477 63.932 57.0257 64.238C57.7097 64.544 58.2737 64.982 58.7177 65.552C59.1617 66.116 59.4557 66.785 59.5997 67.559L58.2137 67.811C58.1237 67.247 57.9167 66.758 57.5927 66.344C57.2687 65.93 56.8547 65.612 56.3507 65.39C55.8527 65.162 55.3037 65.045 54.7037 65.039C54.1217 65.039 53.6027 65.138 53.1467 65.336C52.6967 65.528 52.3397 65.792 52.0757 66.128C51.8117 66.464 51.6797 66.848 51.6797 67.28C51.6797 67.718 51.7997 68.069 52.0397 68.333C52.2857 68.597 52.5857 68.804 52.9397 68.954C53.2997 69.104 53.6477 69.227 53.9837 69.323L56.5217 70.07C56.7857 70.142 57.0947 70.247 57.4487 70.385C57.8087 70.517 58.1567 70.709 58.4927 70.961C58.8347 71.207 59.1167 71.531 59.3387 71.933C59.5607 72.335 59.6717 72.845 59.6717 73.463C59.6717 74.063 59.5517 74.6 59.3117 75.074C59.0777 75.548 58.7447 75.947 58.3127 76.271C57.8867 76.595 57.3857 76.841 56.8097 77.009C56.2397 77.183 55.6157 77.27 54.9377 77.27ZM65.6425 77.27C64.6945 77.27 63.8725 77.06 63.1765 76.64C62.4865 76.22 61.9495 75.629 61.5655 74.867C61.1815 74.105 60.9895 73.211 60.9895 72.185C60.9895 71.123 61.1785 70.205 61.5565 69.431C61.9345 68.657 62.4655 68.06 63.1495 67.64C63.8395 67.22 64.6525 67.01 65.5885 67.01C66.5485 67.01 67.3675 67.232 68.0455 67.676C68.7235 68.114 69.2365 68.744 69.5845 69.566C69.9325 70.388 70.0915 71.369 70.0615 72.509H68.7115V72.041C68.6875 70.781 68.4145 69.83 67.8925 69.188C67.3765 68.546 66.6205 68.225 65.6245 68.225C64.5805 68.225 63.7795 68.564 63.2215 69.242C62.6695 69.92 62.3935 70.886 62.3935 72.14C62.3935 73.364 62.6695 74.315 63.2215 74.993C63.7795 75.665 64.5685 76.001 65.5885 76.001C66.2845 76.001 66.8905 75.842 67.4065 75.524C67.9285 75.2 68.3395 74.735 68.6395 74.129L69.8725 74.606C69.4885 75.452 68.9215 76.109 68.1715 76.577C67.4275 77.039 66.5845 77.27 65.6425 77.27ZM61.9255 72.509V71.402H69.3505V72.509H61.9255ZM78.8152 77V72.041C78.8152 71.501 78.7642 71.006 78.6622 70.556C78.5602 70.1 78.3952 69.704 78.1672 69.368C77.9452 69.026 77.6542 68.762 77.2942 68.576C76.9402 68.39 76.5082 68.297 75.9982 68.297C75.5302 68.297 75.1162 68.378 74.7562 68.54C74.4022 68.702 74.1022 68.936 73.8562 69.242C73.6162 69.542 73.4332 69.908 73.3072 70.34C73.1812 70.772 73.1182 71.264 73.1182 71.816L72.1822 71.609C72.1822 70.613 72.3562 69.776 72.7042 69.098C73.0522 68.42 73.5322 67.907 74.1442 67.559C74.7562 67.211 75.4582 67.037 76.2502 67.037C76.8322 67.037 77.3392 67.127 77.7712 67.307C78.2092 67.487 78.5782 67.73 78.8782 68.036C79.1842 68.342 79.4302 68.693 79.6162 69.089C79.8022 69.479 79.9372 69.896 80.0212 70.34C80.1052 70.778 80.1472 71.216 80.1472 71.654V77H78.8152ZM71.7862 77V67.28H72.9832V69.674H73.1182V77H71.7862ZM86.1833 77.27C85.2773 77.27 84.5033 77.045 83.8613 76.595C83.2193 76.139 82.7273 75.524 82.3853 74.75C82.0433 73.976 81.8723 73.103 81.8723 72.131C81.8723 71.165 82.0403 70.295 82.3763 69.521C82.7183 68.747 83.2073 68.135 83.8433 67.685C84.4793 67.235 85.2413 67.01 86.1293 67.01C87.0413 67.01 87.8093 67.232 88.4333 67.676C89.0573 68.12 89.5283 68.729 89.8463 69.503C90.1703 70.271 90.3323 71.147 90.3323 72.131C90.3323 73.097 90.1733 73.97 89.8553 74.75C89.5373 75.524 89.0693 76.139 88.4513 76.595C87.8333 77.045 87.0773 77.27 86.1833 77.27ZM86.3183 76.037C87.0083 76.037 87.5783 75.869 88.0283 75.533C88.4783 75.197 88.8143 74.735 89.0363 74.147C89.2583 73.553 89.3693 72.881 89.3693 72.131C89.3693 71.369 89.2583 70.697 89.0363 70.115C88.8143 69.527 88.4783 69.068 88.0283 68.738C87.5843 68.408 87.0233 68.243 86.3453 68.243C85.6493 68.243 85.0733 68.414 84.6173 68.756C84.1613 69.098 83.8223 69.563 83.6003 70.151C83.3843 70.739 83.2763 71.399 83.2763 72.131C83.2763 72.869 83.3873 73.535 83.6093 74.129C83.8373 74.717 84.1763 75.182 84.6263 75.524C85.0763 75.866 85.6403 76.037 86.3183 76.037ZM89.3693 77V69.683H89.2253V64.04H90.5573V77H89.3693Z" fill="#F1F2F5"/>
</svg>
